# xmcd
#
# Track frame offsets: 
#        150
#        25354
#        47476
#        66684
#        91206
#        114067
#        130672
#        153705
#        171320
#        195182
#        214338
#        236834
#
# Disc length: 3471 seconds
#
# Revision: 0
# Processed by: cddbd v1.5.2PL0 Copyright (c) Steve Scherf et al.
# Submitted via: ExactAudioCopyFreeDBPlugin 1.0
#
DISCID=a40d8d0c
DTITLE=The-Dream - 1977
DYEAR=2012
DGENRE=R&B
TTITLE0=Wake Me When It's Over
TTITLE1=Used To Be (feat. Casha)
TTITLE2=Long Gone
TTITLE3=Ghetto (feat. Big Sean)
TTITLE4=Wedding Crasher
TTITLE5=Rolex (feat. Casha)
TTITLE6=1977
TTITLE7=Wish You Were Mine
TTITLE8=Real (feat. Pharrell)
TTITLE9=Form of Flattery
TTITLE10=AK47
TTITLE11=Tender Tendencies
EXTD=
EXTT0=
EXTT1=
EXTT2=
EXTT3=
EXTT4=
EXTT5=
EXTT6=
EXTT7=
EXTT8=
EXTT9=
EXTT10=
EXTT11=
PLAYORDER=
